:SAMPLES-PER-SECOND 30
:FULLY-SPECIFIED
:DEGREES
193
root  -41.2667 41.3675 -5.81008 -165.727 -85.2719 164.943
RightUpLeg  1.84546 -8.60845 -7.41734
RightLeg  5.98792 2.17998 2.82068
RightFoot  -4.58859 -0.0268313 -0.148047
RightToes  2.91037e-010 0 -3.6325e-017
Spine  0.969658 2.6921 6.03578
Spine1  14.7318 4.70345 -5.54664
HEad  -16.724 -17.2596 4.57271
LeftShoulder1  9.81143 -14.2992 -48.1115
LeftArm  -5.29157 11.1014 -26.1456
LeftForeArm  23.538 -20.2198 -3.89395
LeftHand  -0.244104 0.0205437 5.32207
RightShoulder  8.4083 13.0121 44.4397
RightArm  -6.57981 6.63879 33.6867
RightForeArm  29.4847 -4.90252 6.39384
RightHand  0.00104618 -8.87361 -0.393784
LeftUpLeg  -0.24795 2.87909 -1.57474
LeftLeg  1.40854 11.8251 -4.37485
LeftFoot  -0.921742 -0.430962 4.78561
LeftToes  1.46425e-010 1.43544e-010 6.23391e-011
194
root  -41.2339 41.3641 -5.78546 -167.072 -84.9617 166.264
RightUpLeg  1.72265 -8.57705 -7.39925
RightLeg  6.05478 2.48665 2.81271
RightFoot  -4.5633 -0.0280146 -0.127724
RightToes  2.91037e-010 0 -3.6325e-017
Spine  1.08308 3.08784 6.37648
Spine1  14.9493 5.13071 -5.50087
HEad  -17.3369 -17.956 4.90008
LeftShoulder1  9.80599 -14.4028 -47.802
LeftArm  -4.87256 10.4526 -27.1093
LeftForeArm  24.4203 -20.1216 -3.89187
LeftHand  -0.244104 0.0205437 5.32207
RightShoulder  8.58192 13.2214 44.8028
RightArm  -11.1479 2.14756 32.7647
RightForeArm  30.7364 -5.86505 3.80917
RightHand  0.0782057 -12.5286 -2.81565
LeftUpLeg  -0.328888 2.89459 -1.57156
LeftLeg  1.54947 12.1384 -4.33284
LeftFoot  -0.983999 -0.427559 4.77966
LeftToes  1.46425e-010 1.43544e-010 6.23391e-011
195
root  -41.2184 41.363 -5.75245 -166.974 -85.0885 166.304
RightUpLeg  1.58294 -8.55235 -7.3757
RightLeg  6.00209 2.32546 2.78668
RightFoot  -4.4883 -0.0334465 -0.0415869
RightToes  2.91037e-010 0 -3.6325e-017
Spine  1.08195 3.18281 6.55646
Spine1  14.9957 5.25829 -5.58226
HEad  -18.2358 -17.9177 6.03136
LeftShoulder1  9.72272 -14.3837 -47.4408
LeftArm  -4.77717 10.3305 -27.8315
LeftForeArm  25.2441 -20.7565 -3.7658
LeftHand  -0.244104 0.0205437 5.32207
RightShoulder  8.29893 12.867 44.2368
RightArm  -10.3957 -4.30159 32.4819
RightForeArm  20.6244 -0.874942 4.84488
RightHand  0.262887 -8.77076 -9.87037
LeftUpLeg  -0.548563 2.84562 -1.6082
LeftLeg  1.60727 12.07 -4.30447
LeftFoot  -0.938774 -0.433324 4.81734
LeftToes  1.46425e-010 1.43544e-010 6.23391e-011
196
root  -41.2219 41.3629 -5.72394 -165.275 -85.5776 164.786
RightUpLeg  1.52411 -8.55638 -7.38678
RightLeg  5.90109 1.81239 2.74788
RightFoot  -4.45566 -0.0400469 0.0625084
RightToes  2.91037e-010 0 -3.6325e-017
Spine  0.969172 2.77005 6.14286
Spine1  14.7814 4.69595 -5.27192
HEad  -18.8094 -16.7726 6.92297
LeftShoulder1  9.6449 -14.2243 -47.4855
LeftArm  -4.82671 11.1319 -27.7946
LeftForeArm  25.2816 -22.215 -3.65455
LeftHand  -0.244104 0.0205437 5.32207
RightShoulder  7.86962 12.2654 43.5175
RightArm  -7.29719 -9.86085 31.7087
RightForeArm  12.0809 4.56662 6.94685
RightHand  -0.248083 -2.49075 -10.0901
LeftUpLeg  -0.732083 2.7481 -1.68382
LeftLeg  1.52757 11.6447 -4.30776
LeftFoot  -0.850259 -0.44006 4.83992
LeftToes  1.46425e-010 1.43544e-010 6.23391e-011
197
root  -41.2284 41.3635 -5.70995 -162.699 -86.0642 162.322
RightUpLeg  1.53365 -8.59742 -7.44439
RightLeg  5.85071 1.34804 2.73033
RightFoot  -4.49843 -0.0437291 0.121089
RightToes  2.91037e-010 0 -3.6325e-017
Spine  0.755326 2.07237 5.12046
Spine1  14.601 3.63014 -4.32661
HEad  -18.8109 -14.7914 6.81972
LeftShoulder1  9.603 -14.0006 -47.8894
LeftArm  -5.31462 12.4226 -27.3179
LeftForeArm  25.1345 -23.6824 -3.74547
LeftHand  -0.244104 0.0205437 5.32207
RightShoulder  7.52725 11.8424 42.7279
RightArm  -2.68913 -13.7393 30.637
RightForeArm  7.685 9.33612 8.29166
RightHand  -0.221903 -0.824668 -5.37568
LeftUpLeg  -0.797002 2.66817 -1.75972
LeftLeg  1.37972 11.162 -4.34664
LeftFoot  -0.767306 -0.443933 4.8509
LeftToes  1.46425e-010 1.43544e-010 6.23391e-011
198
root  -41.2241 41.3646 -5.70574 -160.741 -86.2682 160.363
RightUpLeg  1.54652 -8.65703 -7.53209
RightLeg  5.91437 1.20038 2.73745
RightFoot  -4.58075 -0.0452745 0.146272
RightToes  2.91037e-010 0 -3.6325e-017
Spine  0.474857 1.44942 3.89689
Spine1  14.7136 2.56521 -3.07321
HEad  -18.457 -12.5084 5.99311
LeftShoulder1  9.5663 -13.8207 -48.2047
LeftArm  -5.81702 13.4035 -27.1167
LeftForeArm  25.0181 -24.0993 -3.83607
LeftHand  -0.244104 0.0205437 5.32207
RightShoulder  7.17772 11.5777 41.3674
RightArm  5.8003 -16.4956 30.5969
RightForeArm  1.97049 14.6075 7.87201
RightHand  -0.167768 -1.36324 -4.66512
LeftUpLeg  -0.759782 2.64067 -1.81608
LeftLeg  1.26762 10.9115 -4.39892
LeftFoot  -0.703767 -0.446105 4.86627
LeftToes  1.46425e-010 1.43544e-010 6.23391e-011
199
root  -41.209 41.366 -5.70117 -160.312 -86.2195 159.846
RightUpLeg  1.54026 -8.69549 -7.60405
RightLeg  6.06367 1.29014 2.73663
RightFoot  -4.64645 -0.0474074 0.18033
RightToes  2.91037e-010 0 -3.6325e-017
Spine  0.265284 1.01425 3.04404
Spine1  14.8776 1.84687 -2.26561
HEad  -17.9036 -10.5017 5.14236
LeftShoulder1  9.48125 -13.7272 -48.0332
LeftArm  -5.73554 13.7874 -27.3954
LeftForeArm  24.7068 -23.1522 -3.71687
LeftHand  -0.244104 0.0205437 5.32207
RightShoulder  6.75274 11.2346 39.6933
RightArm  14.0452 -18.3838 31.6058
RightForeArm  -2.75712 18.8734 6.41508
RightHand  -0.348887 -1.12124 -9.24188
LeftUpLeg  -0.680165 2.63321 -1.85952
LeftLeg  1.24691 10.9389 -4.41423
LeftFoot  -0.671146 -0.446553 4.86785
LeftToes  1.46425e-010 1.43544e-010 6.23391e-011
200
root  -41.1889 41.3672 -5.69743 -161.301 -86.0469 160.725
RightUpLeg  1.53029 -8.68096 -7.60439
RightLeg  6.18646 1.45138 2.71424
RightFoot  -4.65481 -0.0481176 0.192033
RightToes  2.91037e-010 0 -3.6325e-017
Spine  0.25316 0.704764 2.82617
Spine1  14.7097 1.52268 -2.29921
HEad  -17.1059 -9.03751 4.58316
LeftShoulder1  9.34297 -13.6826 -47.4467
LeftArm  -5.59136 13.8775 -27.7635
LeftForeArm  24.7259 -21.4416 -3.68825
LeftHand  -0.244104 0.0205437 5.32207
RightShoulder  6.43272 10.8727 38.6744
RightArm  17.9854 -19.4095 32.5085
RightForeArm  -3.42248 20.2665 5.86046
RightHand  -0.560902 -0.481076 -13.3674
LeftUpLeg  -0.617976 2.6395 -1.86194
LeftLeg  1.31277 11.1199 -4.38603
LeftFoot  -0.682995 -0.444714 4.84269
LeftToes  1.46425e-010 1.43544e-010 6.23391e-011
201
root  -41.168 41.3682 -5.70445 -163.4 -85.7434 162.704
RightUpLeg  1.55797 -8.63727 -7.54335
RightLeg  6.19775 1.71929 2.71253
RightFoot  -4.60009 -0.0428525 0.110679
RightToes  2.91037e-010 0 -3.6325e-017
Spine  0.350834 0.526597 2.91262
Spine1  14.3547 1.43948 -2.66328
HEad  -16.1323 -7.7807 4.18622
LeftShoulder1  9.22249 -13.6278 -46.9757
LeftArm  -5.90209 13.929 -27.8678
LeftForeArm  25.2583 -19.8062 -3.85416
LeftHand  -0.244104 0.0205437 5.32207
RightShoulder  6.34432 10.7228 38.5284
RightArm  18.9112 -19.9844 32.8403
RightForeArm  -2.18656 19.7202 6.07594
RightHand  -0.586439 -0.488852 -13.8789
LeftUpLeg  -0.540808 2.7159 -1.77863
LeftLeg  1.39231 11.3709 -4.38282
LeftFoot  -0.72304 -0.44251 4.81668
LeftToes  1.46425e-010 1.43544e-010 6.23391e-011
202
root  -41.149 41.3686 -5.7253 -165.757 -85.2846 164.879
RightUpLeg  1.67229 -8.64343 -7.51328
RightLeg  6.14406 2.19863 2.78457
RightFoot  -4.52773 -0.0328775 -0.04412
RightToes  2.91037e-010 0 -3.6325e-017
Spine  0.358954 0.505394 2.78458
Spine1  14.2942 1.39733 -2.60102
HEad  -15.2326 -6.25364 3.74459
LeftShoulder1  9.19599 -13.5589 -47.0309
LeftArm  -6.38953 13.9149 -27.6944
LeftForeArm  25.7285 -18.6286 -4.04413
LeftHand  -0.244104 0.0205437 5.32207
RightShoulder  6.36381 10.7457 38.5907
RightArm  18.1877 -20.3497 33.093
RightForeArm  -1.71931 18.8134 6.51581
RightHand  -0.518774 -0.761795 -12.9896
LeftUpLeg  -0.345109 2.86629 -1.64182
LeftLeg  1.40263 11.6865 -4.4398
LeftFoot  -0.753785 -0.441348 4.80875
LeftToes  1.46425e-010 1.43544e-010 6.23391e-011
203
root  -41.1302 41.3682 -5.75402 -167.378 -84.8211 166.254
RightUpLeg  1.83823 -8.7222 -7.55587
RightLeg  6.15365 2.76015 2.91073
RightFoot  -4.5085 -0.024971 -0.16715
RightToes  2.91037e-010 0 -3.6325e-017
Spine  0.235941 0.539507 2.3854
Spine1  14.5954 1.29482 -2.13063
HEad  -14.6051 -4.58937 3.22069
LeftShoulder1  9.25925 -13.538 -47.4199
LeftArm  -6.57953 13.8855 -27.4167
LeftForeArm  25.7188 -17.9287 -4.19479
LeftHand  -0.244104 0.0205437 5.32207
RightShoulder  6.36349 10.7396 38.607
RightArm  16.2185 -20.2554 33.6401
RightForeArm  -2.25505 17.6251 7.16576
RightHand  -0.499187 -0.866884 -12.7759
LeftUpLeg  -0.0618765 2.99941 -1.5359
LeftLeg  1.37618 12.0135 -4.4879
LeftFoot  -0.767434 -0.438659 4.79412
LeftToes  1.46425e-010 1.43544e-010 6.23391e-011
204
root  -41.1022 41.3656 -5.78609 -168.22 -84.5202 166.887
RightUpLeg  1.91491 -8.78055 -7.578
RightLeg  6.29693 3.13734 2.99388
RightFoot  -4.56894 -0.0218728 -0.215877
RightToes  2.91037e-010 0 -3.6325e-017
Spine  0.097806 0.519216 2.03644
Spine1  14.8939 1.17123 -1.78873
HEad  -14.2982 -3.35902 2.6704
LeftShoulder1  9.34214 -13.5908 -47.7015
LeftArm  -6.40238 14.0513 -27.2209
LeftForeArm  25.3672 -17.7985 -4.2551
LeftHand  -0.244104 0.0205437 5.32207
RightShoulder  6.39197 10.6858 38.961
RightArm  12.6708 -19.6295 34.1749
RightForeArm  -1.31254 15.712 8.02854
RightHand  -0.481945 -0.944884 -12.5345
LeftUpLeg  0.116452 3.07464 -1.4687
LeftLeg  1.43242 12.2429 -4.47532
LeftFoot  -0.787659 -0.43381 4.7532
LeftToes  1.46425e-010 1.43544e-010 6.23391e-011
205
root  -41.0568 41.3604 -5.82048 -168.832 -84.3236 167.377
RightUpLeg  1.82148 -8.74048 -7.4935
RightLeg  6.54685 3.29706 2.96938
RightFoot  -4.6637 -0.0191288 -0.259485
RightToes  2.91037e-010 0 -3.6325e-017
Spine  0.0198096 0.489053 1.84272
Spine1  15.0382 1.09305 -1.64187
HEad  -14.3009 -2.69361 2.05133
LeftShoulder1  9.39997 -13.655 -47.819
LeftArm  -6.24201 14.4128 -27.213
LeftForeArm  25.092 -18.2779 -4.1597
LeftHand  -0.244104 0.0205437 5.32207
RightShoulder  6.48992 10.6912 39.6023
RightArm  9.10085 -18.8624 34.5989
RightForeArm  0.429291 14.0391 8.57979
RightHand  -0.447945 -0.962731 -11.7037
LeftUpLeg  0.123017 3.16646 -1.37416
LeftLeg  1.57863 12.3596 -4.46979
LeftFoot  -0.80909 -0.430089 4.71617
LeftToes  1.46425e-010 1.43544e-010 6.23391e-011
206
root  -40.9956 41.3559 -5.85424 -169.427 -84.0977 167.853
RightUpLeg  1.66292 -8.65817 -7.36629
RightLeg  6.84069 3.42637 2.88657
RightFoot  -4.73366 -0.0132678 -0.351903
RightToes  2.91037e-010 0 -3.6325e-017
Spine  0.00859576 0.515235 1.63964
Spine1  15.1975 1.03853 -1.37756
HEad  -14.5344 -2.21027 1.30556
LeftShoulder1  9.43555 -13.6692 -47.9623
LeftArm  -6.32281 14.6691 -27.3702
LeftForeArm  25.0666 -18.9822 -3.99546
LeftHand  -0.244104 0.0205437 5.32207
RightShoulder  6.5725 10.7563 39.9543
RightArm  7.85855 -18.1653 35.3219
RightForeArm  -0.964743 13.7946 8.68074
RightHand  -0.462003 -0.785056 -11.6097
LeftUpLeg  0.123984 3.31046 -1.24886
LeftLeg  1.68635 12.4551 -4.53292
LeftFoot  -0.781279 -0.430805 4.71133
LeftToes  1.46425e-010 1.43544e-010 6.23391e-011
207
root  -40.9255 41.3538 -5.8845 -169.68 -83.9215 167.91
RightUpLeg  1.5917 -8.63272 -7.30379
RightLeg  7.11492 3.56053 2.8309
RightFoot  -4.76865 -0.00725336 -0.447136
RightToes  2.91037e-010 0 -3.6325e-017
Spine  0.0967421 0.523285 1.44293
Spine1  15.3817 0.972155 -1.12755
HEad  -14.8135 -1.66489 0.558565
LeftShoulder1  9.44357 -13.6582 -48.0347
LeftArm  -6.37642 14.6181 -27.6096
LeftForeArm  25.0698 -19.358 -3.91972
LeftHand  -0.244104 0.0205437 5.32207
RightShoulder  6.60715 10.8186 39.9933
RightArm  8.26917 -17.3779 36.2724
RightForeArm  -5.63999 14.3785 8.71636
RightHand  -0.530793 -0.700275 -13.1095
LeftUpLeg  0.228061 3.42251 -1.16609
LeftLeg  1.70431 12.5352 -4.60034
LeftFoot  -0.671055 -0.436359 4.71361
LeftToes  1.46425e-010 1.43544e-010 6.23391e-011
